# xmcd
#
# Track frame offsets:
#	150
#	17721
#	36044
#	53823
#	69873
#	90736
#	108544
#	126487
#	140457
#	159495
#	174914
#	195331
#
# Disc length: 2777 seconds
#
# Revision: 9
# Processed by: cddbd v1.5.2PL0 Copyright (c) Steve Scherf et al.
# Submitted via: EasyCDDAExtractor 15.3.0.1
#
DISCID=990ad70c
DTITLE=Laura Pausini - From The Inside
DYEAR=2002
DGENRE=Pop
TTITLE0=I Need Love
TTITLE1=Do I Dare
TTITLE2=Surrender
TTITLE3=If That's Love
TTITLE4=It's Not Good-Bye
TTITLE5=Love Comes From The Inside
TTITLE6=Every Little Thing You Do
TTITLE7=Every Day Is A Monday
TTITLE8=You Are
TTITLE9=I Do To Be
TTITLE10=Without You
TTITLE11=Every Little Thing You Do (Piano, Vocal Reprise)
EXTD=YEAR: 2002
EXTT0=
EXTT1=
EXTT2=
EXTT3=
EXTT4=
EXTT5=
EXTT6=
EXTT7=
EXTT8=
EXTT9=
EXTT10=
EXTT11=
PLAYORDER=
